<?xml version="1.0" encoding="utf-8"?>
<svg version="1.1" id="Layer_1" xmlns="http://www.w3.org/2000/svg" xmlns:xlink="http://www.w3.org/1999/xlink" x="0px" y="0px"
	 width="100px" height="100px" viewBox="0 0 100 100" enable-background="new 0 0 100 100" xml:space="preserve">
<g id="surface1">
	<rect fill="#512BD4" width="100" height="100"/>
	<path fill="#FFFFFF" d="M17.8,63.9c-0.7,0-1.3-0.2-1.8-0.7c-0.5-0.5-0.7-1.1-0.7-1.7c0-0.7,0.2-1.3,0.7-1.7
		c0.5-0.5,1.1-0.7,1.8-0.7c0.7,0,1.3,0.2,1.8,0.7c0.5,0.5,0.8,1.1,0.8,1.7c0,0.7-0.3,1.2-0.8,1.7C19.1,63.7,18.5,63.9,17.8,63.9z"/>
	<path fill="#FFFFFF" d="M46.1,63.5h-4.6L29.4,44.4c-0.3-0.5-0.6-1-0.8-1.5h-0.1c0.1,0.6,0.1,1.7,0.1,3.6v17h-4.1v-26h4.9l11.7,18.6
		c0.5,0.8,0.8,1.3,1,1.6h0.1c-0.1-0.7-0.2-1.9-0.2-3.5V37.5h4V63.5z"/>
	<path fill="#FFFFFF" d="M65.9,63.5H51.7v-26h13.7v3.7h-9.5v7.4h8.7v3.6h-8.7v7.7h10V63.5z"/>
	<path fill="#FFFFFF" d="M86.1,41.2h-7.3v22.3h-4.2V41.2h-7.3v-3.7h18.8V41.2z"/>
</g>
</svg>