<?xml version="1.0" encoding="utf-8"?>
<svg version="1.0" id="Layer_1" xmlns="http://www.w3.org/2000/svg" xmlns:xlink="http://www.w3.org/1999/xlink" x="0px" y="0px"
	 width="100px" height="100px" viewBox="0 0 100 100" enable-background="new 0 0 100 100" xml:space="preserve">
<g id="surface1">
	<path fill-rule="evenodd" clip-rule="evenodd" fill="#5382A1" d="M36.9,77.5c0,0-3.8,2.5,2.5,3.1c8.8,0.6,12.5,0.6,21.3-1.3
		c0,0,2.5,1.3,5.6,2.5C46.9,90.6,21.9,81.9,36.9,77.5 M35,66.3c0,0-4.4,3.1,2.5,3.8c8.8,0.6,15.6,1.3,26.9-1.3c0,0,1.9,1.9,4.4,2.5
		C44.4,78.1,17.5,71.9,35,66.3"/>
	<path fill-rule="evenodd" clip-rule="evenodd" fill="#E76F00" d="M55,48.1c5,5.6-1.3,10.6-1.3,10.6s12.5-6.3,6.9-14.4
		c-5.6-7.5-9.4-11.3,12.5-23.8C73.1,20.6,38.8,28.8,55,48.1"/>
	<path fill-rule="evenodd" clip-rule="evenodd" fill="#5382A1" d="M81.3,85.6c0,0,3.1,2.5-3.1,4.4c-11.3,3.1-47.5,4.4-57.5,0
		c-3.8-1.3,3.1-3.8,5-4.4c2.5-0.6,3.8-0.6,3.8-0.6c-3.8-2.5-26.3,5.6-11.3,8.1C58.8,99.4,91.9,90,81.3,85.6 M38.8,55
		c0,0-18.1,4.4-6.3,5.6c5,0.6,15,0.6,24.4,0c7.5-0.6,15-1.9,15-1.9s-2.5,1.3-4.4,2.5c-18.8,5-55,2.5-44.4-2.5
		C31.9,54.4,38.8,55,38.8,55 M71.9,73.1c18.8-10,10-19.4,4.4-18.1c-1.9,0.6-2.5,1.3-2.5,1.3s0.6-0.6,1.9-1.3
		C87.5,50.6,96.9,66.9,71.9,73.1C71.9,73.8,71.9,73.8,71.9,73.1"/>
	<path fill-rule="evenodd" clip-rule="evenodd" fill="#E76F00" d="M60.6,0c0,0,10.6,10.6-10,26.3c-16.3,12.5-3.8,20,0,28.1
		c-9.4-8.1-16.9-15.6-11.9-22.5C45.6,21.3,65,16.9,60.6,0"/>
	<path fill-rule="evenodd" clip-rule="evenodd" fill="#5382A1" d="M40.6,99.4c18.1,1.3,46.3-0.6,46.9-9.4c0,0-1.3,3.1-15,5.6
		c-15.6,3.1-35,2.5-46.3,0.6C26.9,96.9,28.8,98.8,40.6,99.4"/>
</g>
</svg>