<?xml version="1.0" encoding="utf-8"?>
<svg version="1.0" id="Layer_1" xmlns="http://www.w3.org/2000/svg" xmlns:xlink="http://www.w3.org/1999/xlink" x="0px" y="0px"
	 width="100px" height="100px" viewBox="0 0 100 100" enable-background="new 0 0 100 100" xml:space="preserve">
<g id="surface1">
	<path d="M88.2,50.4l5.6-9.6c0.2-0.5,0.3-1,0.1-1.5l-11.2-32c-0.3-1-1.4-1.5-2.4-1.3l-32.8,8c-0.6,0.2-1.1,0.6-1.4,1.2L42.6,24H32
		c-0.6,0-1.1,0.2-1.5,0.6l-24,26c-0.7,0.8-0.7,2.1,0.1,2.8l25.2,24c0.4,0.4,0.9,0.6,1.4,0.6h11.5l3.5,8.7c0.3,0.6,0.8,1.1,1.5,1.2
		l34.9,6c1.1,0.2,2.1-0.5,2.3-1.5L94,60c0.1-0.5,0-1-0.3-1.5L88.2,50.4z M42.6,24l28.2-5.2L56,48H22.3L42.6,24z M44.6,78L22.3,56H56
		l17.5,26.3L44.6,78z M80.8,77.8L64,52l14.7-29.2l9.5,27.6L80.8,77.8z"/>
</g>
</svg>